{
    "asset" : {
        "generator" : "Khronos glTF Blender I/O v1.0.5",
        "version" : "2.0"
    },
    "scene" : 0,
    "scenes" : [
        {
            "name" : "Scene",
            "nodes" : [
                0,
                4,
                5,
                6
            ]
        }
    ],
    "nodes" : [
        {
            "name" : "Camera",
            "rotation" : [
                0.483536034822464,
                0.33687159419059753,
                -0.20870360732078552,
                0.7804827094078064
            ],
            "translation" : [
                7.358891487121582,
                4.958309173583984,
                6.925790786743164
            ]
        },
        {
            "mesh" : 0,
            "name" : "Object #0",
            "translation" : [
                -0.004612773656845093,
                0.6302657723426819,
                0.015004213899374008
            ]
        },
        {
            "mesh" : 1,
            "name" : "Object #0.001",
            "translation" : [
                -0.004612773656845093,
                0.6302657723426819,
                0.015004213899374008
            ]
        },
        {
            "mesh" : 2,
            "name" : "Object #1",
            "translation" : [
                -0.0051586744375526905,
                0.6235363483428955,
                0.015004214830696583
            ]
        },
        {
            "children" : [
                1,
                2,
                3
            ],
            "name" : "cadnav.com",
            "scale" : [
                2.4514660835266113,
                2.4514660835266113,
                2.4514660835266113
            ],
            "translation" : [
                0,
                0.009807242080569267,
                0.013453841209411621
            ]
        },
        {
            "name" : "Point",
            "translation" : [
                0,
                0.9131775498390198,
                0.40015411376953125
            ]
        },
        {
            "name" : "Point.001",
            "translation" : [
                0,
                0.9066998362541199,
                -0.42402923107147217
            ]
        }
    ],
    "materials" : [
        {
            "doubleSided" : true,
            "name" : "Material.001",
            "pbrMetallicRoughness" : {
                "baseColorTexture" : {
                    "index" : 0,
                    "texCoord" : 0
                },
                "metallicFactor" : 0.20000000298023224,
                "roughnessFactor" : 0.5527864098548889
            }
        },
        {
            "doubleSided" : true,
            "name" : "Material.002",
            "pbrMetallicRoughness" : {
                "baseColorTexture" : {
                    "index" : 1,
                    "texCoord" : 0
                },
                "metallicFactor" : 0.20000000298023224,
                "roughnessFactor" : 0.5527864098548889
            }
        },
        {
            "doubleSided" : true,
            "name" : "Material.003",
            "pbrMetallicRoughness" : {
                "baseColorFactor" : [
                    0.800000011920929,
                    0.800000011920929,
                    0.800000011920929,
                    1
                ],
                "metallicFactor" : 1,
                "roughnessFactor" : 0.5527864098548889
            }
        }
    ],
    "meshes" : [
        {
            "name" : "Untitled.001",
            "primitives" : [
                {
                    "attributes" : {
                        "POSITION" : 0,
                        "NORMAL" : 1,
                        "TEXCOORD_0" : 2
                    },
                    "indices" : 3,
                    "material" : 0
                }
            ]
        },
        {
            "name" : "Untitled.002",
            "primitives" : [
                {
                    "attributes" : {
                        "POSITION" : 4,
                        "NORMAL" : 5,
                        "TEXCOORD_0" : 6
                    },
                    "indices" : 7,
                    "material" : 1
                }
            ]
        },
        {
            "name" : "Untitled",
            "primitives" : [
                {
                    "attributes" : {
                        "POSITION" : 8,
                        "NORMAL" : 9
                    },
                    "indices" : 10,
                    "material" : 2
                }
            ]
        }
    ],
    "textures" : [
        {
            "source" : 0
        },
        {
            "source" : 0
        }
    ],
    "images" : [
        {
            "bufferView" : 4,
            "mimeType" : "image/jpeg",
            "name" : "ezgif.com-webp-to-jpg"
        }
    ],
    "accessors" : [
        {
            "bufferView" : 0,
            "componentType" : 5126,
            "count" : 1819,
            "max" : [
                0.30125677585601807,
                0.01898886263370514,
                0.05705789104104042
            ],
            "min" : [
                -0.2920312285423279,
                -0.6275131702423096,
                -0.08812246471643448
            ],
            "type" : "VEC3"
        },
        {
            "bufferView" : 1,
            "componentType" : 5126,
            "count" : 1819,
            "type" : "VEC3"
        },
        {
            "bufferView" : 2,
            "componentType" : 5126,
            "count" : 1819,
            "type" : "VEC2"
        },
        {
            "bufferView" : 3,
            "componentType" : 5123,
            "count" : 8046,
            "type" : "SCALAR"
        },
        {
            "bufferView" : 5,
            "componentType" : 5126,
            "count" : 1106,
            "max" : [
                0.30125677585601807,
                0.01898886263370514,
                0.058114033192396164
            ],
            "min" : [
                -0.2920312285423279,
                -0.6302657127380371,
                -0.0593520924448967
            ],
            "type" : "VEC3"
        },
        {
            "bufferView" : 6,
            "componentType" : 5126,
            "count" : 1106,
            "type" : "VEC3"
        },
        {
            "bufferView" : 7,
            "componentType" : 5126,
            "count" : 1106,
            "type" : "VEC2"
        },
        {
            "bufferView" : 8,
            "componentType" : 5123,
            "count" : 3948,
            "type" : "SCALAR"
        },
        {
            "bufferView" : 9,
            "componentType" : 5126,
            "count" : 2622,
            "max" : [
                0.21000632643699646,
                0.14195814728736877,
                0.029959840700030327
            ],
            "min" : [
                -0.21052753925323486,
                -0.11593460291624069,
                -0.044524334371089935
            ],
            "type" : "VEC3"
        },
        {
            "bufferView" : 10,
            "componentType" : 5126,
            "count" : 2622,
            "type" : "VEC3"
        },
        {
            "bufferView" : 11,
            "componentType" : 5123,
            "count" : 15312,
            "type" : "SCALAR"
        }
    ],
    "bufferViews" : [
        {
            "buffer" : 0,
            "byteLength" : 21828,
            "byteOffset" : 0
        },
        {
            "buffer" : 0,
            "byteLength" : 21828,
            "byteOffset" : 21828
        },
        {
            "buffer" : 0,
            "byteLength" : 14552,
            "byteOffset" : 43656
        },
        {
            "buffer" : 0,
            "byteLength" : 16092,
            "byteOffset" : 58208
        },
        {
            "buffer" : 0,
            "byteLength" : 30644,
            "byteOffset" : 74300
        },
        {
            "buffer" : 0,
            "byteLength" : 13272,
            "byteOffset" : 104944
        },
        {
            "buffer" : 0,
            "byteLength" : 13272,
            "byteOffset" : 118216
        },
        {
            "buffer" : 0,
            "byteLength" : 8848,
            "byteOffset" : 131488
        },
        {
            "buffer" : 0,
            "byteLength" : 7896,
            "byteOffset" : 140336
        },
        {
            "buffer" : 0,
            "byteLength" : 31464,
            "byteOffset" : 148232
        },
        {
            "buffer" : 0,
            "byteLength" : 31464,
            "byteOffset" : 179696
        },
        {
            "buffer" : 0,
            "byteLength" : 30624,
            "byteOffset" : 211160
        }
    ],
    "buffers" : [
        {
            "byteLength" : 241784,
            "uri" : "data:application/octet-stream;base64,"
        }
    ]
}
