{
    "asset" : {
        "generator" : "Khronos glTF Blender I/O v1.0.5",
        "version" : "2.0"
    },
    "scene" : 0,
    "scenes" : [
        {
            "name" : "Scene",
            "nodes" : [
                0,
                1,
                5,
                6,
                7
            ]
        }
    ],
    "nodes" : [
        {
            "name" : "Light",
            "rotation" : [
                0.16907575726509094,
                0.7558803558349609,
                -0.27217137813568115,
                0.570947527885437
            ],
            "translation" : [
                4.076245307922363,
                5.903861999511719,
                -1.0054539442062378
            ]
        },
        {
            "name" : "Camera",
            "rotation" : [
                0.483536034822464,
                0.33687159419059753,
                -0.20870360732078552,
                0.7804827094078064
            ],
            "translation" : [
                7.358891487121582,
                4.958309173583984,
                6.925790786743164
            ]
        },
        {
            "mesh" : 0,
            "name" : "Object #0",
            "translation" : [
                -0.004612773656845093,
                0.6302657723426819,
                0.015004213899374008
            ]
        },
        {
            "mesh" : 1,
            "name" : "Object #0.001",
            "translation" : [
                -0.004612773656845093,
                0.6302657723426819,
                0.015004213899374008
            ]
        },
        {
            "mesh" : 2,
            "name" : "Object #1",
            "translation" : [
                -0.0051586744375526905,
                0.6235363483428955,
                0.015004214830696583
            ]
        },
        {
            "children" : [
                2,
                3,
                4
            ],
            "name" : "cadnav.com",
            "scale" : [
                2.4514660835266113,
                2.4514660835266113,
                2.4514660835266113
            ],
            "translation" : [
                0,
                0.009807242080569267,
                0
            ]
        },
        {
            "name" : "Point",
            "translation" : [
                0,
                1.0707783699035645,
                0.2942507266998291
            ]
        },
        {
            "name" : "Point.001",
            "translation" : [
                0,
                1.0565383434295654,
                -0.3104146420955658
            ]
        }
    ],
    "materials" : [
        {
            "doubleSided" : true,
            "name" : "Material.001",
            "pbrMetallicRoughness" : {
                "baseColorTexture" : {
                    "index" : 0,
                    "texCoord" : 0
                },
                "metallicFactor" : 0.20000000298023224,
                "roughnessFactor" : 0.5527864098548889
            }
        },
        {
            "doubleSided" : true,
            "name" : "Material.002",
            "pbrMetallicRoughness" : {
                "baseColorTexture" : {
                    "index" : 1,
                    "texCoord" : 0
                },
                "metallicFactor" : 0.20000000298023224,
                "roughnessFactor" : 0.5527864098548889
            }
        },
        {
            "doubleSided" : true,
            "name" : "Material.003",
            "pbrMetallicRoughness" : {
                "baseColorFactor" : [
                    0.800000011920929,
                    0.800000011920929,
                    0.800000011920929,
                    1
                ],
                "metallicFactor" : 1,
                "roughnessFactor" : 0.5527864098548889
            }
        }
    ],
    "meshes" : [
        {
            "name" : "Untitled.001",
            "primitives" : [
                {
                    "attributes" : {
                        "POSITION" : 0,
                        "NORMAL" : 1,
                        "TEXCOORD_0" : 2
                    },
                    "indices" : 3,
                    "material" : 0
                }
            ]
        },
        {
            "name" : "Untitled.002",
            "primitives" : [
                {
                    "attributes" : {
                        "POSITION" : 4,
                        "NORMAL" : 5,
                        "TEXCOORD_0" : 6
                    },
                    "indices" : 7,
                    "material" : 1
                }
            ]
        },
        {
            "name" : "Untitled",
            "primitives" : [
                {
                    "attributes" : {
                        "POSITION" : 8,
                        "NORMAL" : 9
                    },
                    "indices" : 10,
                    "material" : 2
                }
            ]
        }
    ],
    "textures" : [
        {
            "source" : 0
        },
        {
            "source" : 1
        }
    ],
    "images" : [
        {
            "bufferView" : 4,
            "mimeType" : "image/jpeg",
            "name" : "final one"
        },
        {
            "bufferView" : 9,
            "mimeType" : "image/jpeg",
            "name" : "goldfront_1024x1024"
        }
    ],
    "accessors" : [
        {
            "bufferView" : 0,
            "componentType" : 5126,
            "count" : 1986,
            "max" : [
                0.30125677585601807,
                0.01898886263370514,
                0.05705789104104042
            ],
            "min" : [
                -0.2920312285423279,
                -0.6275131702423096,
                -0.08812246471643448
            ],
            "type" : "VEC3"
        },
        {
            "bufferView" : 1,
            "componentType" : 5126,
            "count" : 1986,
            "type" : "VEC3"
        },
        {
            "bufferView" : 2,
            "componentType" : 5126,
            "count" : 1986,
            "type" : "VEC2"
        },
        {
            "bufferView" : 3,
            "componentType" : 5123,
            "count" : 8046,
            "type" : "SCALAR"
        },
        {
            "bufferView" : 5,
            "componentType" : 5126,
            "count" : 1009,
            "max" : [
                0.30125677585601807,
                0.01898886263370514,
                0.058114033192396164
            ],
            "min" : [
                -0.2920312285423279,
                -0.6302657127380371,
                -0.0593520924448967
            ],
            "type" : "VEC3"
        },
        {
            "bufferView" : 6,
            "componentType" : 5126,
            "count" : 1009,
            "type" : "VEC3"
        },
        {
            "bufferView" : 7,
            "componentType" : 5126,
            "count" : 1009,
            "type" : "VEC2"
        },
        {
            "bufferView" : 8,
            "componentType" : 5123,
            "count" : 3948,
            "type" : "SCALAR"
        },
        {
            "bufferView" : 10,
            "componentType" : 5126,
            "count" : 2622,
            "max" : [
                0.21000632643699646,
                0.14195814728736877,
                0.029959840700030327
            ],
            "min" : [
                -0.21052753925323486,
                -0.11593460291624069,
                -0.044524334371089935
            ],
            "type" : "VEC3"
        },
        {
            "bufferView" : 11,
            "componentType" : 5126,
            "count" : 2622,
            "type" : "VEC3"
        },
        {
            "bufferView" : 12,
            "componentType" : 5123,
            "count" : 15312,
            "type" : "SCALAR"
        }
    ],
    "bufferViews" : [
        {
            "buffer" : 0,
            "byteLength" : 23832,
            "byteOffset" : 0
        },
        {
            "buffer" : 0,
            "byteLength" : 23832,
            "byteOffset" : 23832
        },
        {
            "buffer" : 0,
            "byteLength" : 15888,
            "byteOffset" : 47664
        },
        {
            "buffer" : 0,
            "byteLength" : 16092,
            "byteOffset" : 63552
        },
        {
            "buffer" : 0,
            "byteLength" : 26649,
            "byteOffset" : 79644
        },
        {
            "buffer" : 0,
            "byteLength" : 12108,
            "byteOffset" : 106296
        },
        {
            "buffer" : 0,
            "byteLength" : 12108,
            "byteOffset" : 118404
        },
        {
            "buffer" : 0,
            "byteLength" : 8072,
            "byteOffset" : 130512
        },
        {
            "buffer" : 0,
            "byteLength" : 7896,
            "byteOffset" : 138584
        },
        {
            "buffer" : 0,
            "byteLength" : 56184,
            "byteOffset" : 146480
        },
        {
            "buffer" : 0,
            "byteLength" : 31464,
            "byteOffset" : 202664
        },
        {
            "buffer" : 0,
            "byteLength" : 31464,
            "byteOffset" : 234128
        },
        {
            "buffer" : 0,
            "byteLength" : 30624,
            "byteOffset" : 265592
        }
    ],
    "buffers" : [
        {
            "byteLength" : 296216,
            "uri" : "data:application/octet-stream;base64,"
        }
    ]
}
