{
    "asset" : {
        "generator" : "Khronos glTF Blender I/O v1.0.5",
        "version" : "2.0"
    },
    "scene" : 0,
    "scenes" : [
        {
            "name" : "Scene",
            "nodes" : [
                0,
                1,
                6,
                10,
                11,
                12
            ]
        }
    ],
    "nodes" : [
        {
            "name" : "Light",
            "rotation" : [
                0.16907575726509094,
                0.7558803558349609,
                -0.27217137813568115,
                0.570947527885437
            ],
            "translation" : [
                4.204217433929443,
                5.8812785148620605,
                -1.0121272802352905
            ]
        },
        {
            "name" : "Camera",
            "rotation" : [
                0.483536034822464,
                0.33687159419059753,
                -0.20870360732078552,
                0.7804827094078064
            ],
            "translation" : [
                7.358891487121582,
                4.958309173583984,
                6.925790786743164
            ]
        },
        {
            "mesh" : 0,
            "name" : "node_id5",
            "rotation" : [
                -0.7071068286895752,
                0,
                0,
                0.7071067094802856
            ],
            "scale" : [
                668.8487548828125,
                668.8487548828125,
                668.8487548828125
            ],
            "translation" : [
                -3.084768295288086,
                266.0345458984375,
                -165.55242919921875
            ]
        },
        {
            "mesh" : 1,
            "name" : "node_id7",
            "rotation" : [
                -0.7071068286895752,
                0,
                0,
                0.7071067094802856
            ],
            "scale" : [
                668.8487548828125,
                668.8487548828125,
                668.8487548828125
            ],
            "translation" : [
                -3.084768295288086,
                266.0345458984375,
                -165.55242919921875
            ]
        },
        {
            "mesh" : 2,
            "name" : "node_id9",
            "rotation" : [
                -0.7071068286895752,
                0,
                0,
                0.7071067094802856
            ],
            "scale" : [
                668.8487548828125,
                668.8487548828125,
                668.8487548828125
            ],
            "translation" : [
                -3.4498932361602783,
                266.0345458984375,
                -161.05145263671875
            ]
        },
        {
            "children" : [
                2,
                3,
                4
            ],
            "name" : "node_id11",
            "rotation" : [
                -0.006848725490272045,
                0,
                0,
                0.9999765753746033
            ],
            "scale" : [
                0.00097976578399539,
                0.0009797656675800681,
                0.0009797656675800681
            ],
            "translation" : [
                -0.004014668986201286,
                0.006121994461864233,
                -0.0017575147794559598
            ]
        },
        {
            "children" : [
                5
            ],
            "name" : "root",
            "rotation" : [
                0.7071068286895752,
                0,
                0,
                0.7071067094802856
            ],
            "scale" : [
                0.009999999776482582,
                0.009999999776482582,
                0.009999999776482582
            ],
            "translation" : [
                0.0608176663517952,
                -0.06198692321777344,
                -0.06129045411944389
            ]
        },
        {
            "mesh" : 3,
            "name" : "Object #0",
            "translation" : [
                -0.004612773656845093,
                0.6302657723426819,
                0.015004213899374008
            ]
        },
        {
            "mesh" : 4,
            "name" : "Object #0.001",
            "translation" : [
                -0.004591457545757294,
                0.6302263140678406,
                0.015050764195621014
            ]
        },
        {
            "mesh" : 5,
            "name" : "Object #1",
            "translation" : [
                -0.0051586744375526905,
                0.6235363483428955,
                0.015004214830696583
            ]
        },
        {
            "children" : [
                7,
                8,
                9
            ],
            "name" : "cadnav.com",
            "scale" : [
                2.4514660835266113,
                2.4514660835266113,
                2.4514660835266113
            ],
            "translation" : [
                -0.008225619792938232,
                -0.031873900443315506,
                -0.05464757978916168
            ]
        },
        {
            "name" : "Point",
            "translation" : [
                0.02440500259399414,
                0.8973889350891113,
                0.5648155212402344
            ]
        },
        {
            "name" : "Point.001",
            "translation" : [
                0.021859556436538696,
                0.9805814027786255,
                -0.6424992084503174
            ]
        }
    ],
    "materials" : [
        {
            "doubleSided" : true,
            "name" : "Material_80",
            "pbrMetallicRoughness" : {
                "baseColorTexture" : {
                    "index" : 0,
                    "texCoord" : 0
                },
                "metallicFactor" : 1,
                "roughnessFactor" : 0.5528574585914612
            }
        },
        {
            "doubleSided" : true,
            "name" : "Material_82",
            "pbrMetallicRoughness" : {
                "baseColorTexture" : {
                    "index" : 1,
                    "texCoord" : 0
                },
                "metallicFactor" : 1,
                "roughnessFactor" : 0.5528574585914612
            }
        },
        {
            "doubleSided" : true,
            "name" : "Material_84",
            "pbrMetallicRoughness" : {
                "baseColorTexture" : {
                    "index" : 2,
                    "texCoord" : 0
                },
                "metallicFactor" : 1,
                "roughnessFactor" : 0.5528574585914612
            }
        },
        {
            "doubleSided" : true,
            "name" : "Material.001",
            "pbrMetallicRoughness" : {
                "baseColorTexture" : {
                    "index" : 3,
                    "texCoord" : 0
                },
                "metallicFactor" : 0.5,
                "roughnessFactor" : 0.5527864098548889
            }
        },
        {
            "doubleSided" : true,
            "name" : "Material.002",
            "pbrMetallicRoughness" : {
                "baseColorTexture" : {
                    "index" : 4,
                    "texCoord" : 0
                },
                "metallicFactor" : 0.5,
                "roughnessFactor" : 0.5527864098548889
            }
        },
        {
            "doubleSided" : true,
            "name" : "Material.003",
            "pbrMetallicRoughness" : {
                "baseColorFactor" : [
                    0.800000011920929,
                    0.800000011920929,
                    0.800000011920929,
                    1
                ],
                "metallicFactor" : 1,
                "roughnessFactor" : 0.5527864098548889
            }
        }
    ],
    "meshes" : [
        {
            "name" : "mesh_id6",
            "primitives" : [
                {
                    "attributes" : {
                        "POSITION" : 0,
                        "NORMAL" : 1,
                        "TEXCOORD_0" : 2,
                        "COLOR_0" : 3
                    },
                    "indices" : 4,
                    "material" : 0
                }
            ]
        },
        {
            "name" : "mesh_id8",
            "primitives" : [
                {
                    "attributes" : {
                        "POSITION" : 5,
                        "NORMAL" : 6,
                        "TEXCOORD_0" : 7,
                        "COLOR_0" : 8
                    },
                    "indices" : 9,
                    "material" : 1
                }
            ]
        },
        {
            "name" : "mesh_id10",
            "primitives" : [
                {
                    "attributes" : {
                        "POSITION" : 10,
                        "NORMAL" : 11,
                        "TEXCOORD_0" : 12,
                        "COLOR_0" : 13
                    },
                    "indices" : 14,
                    "material" : 2
                }
            ]
        },
        {
            "name" : "Untitled.001",
            "primitives" : [
                {
                    "attributes" : {
                        "POSITION" : 15,
                        "NORMAL" : 16,
                        "TEXCOORD_0" : 17
                    },
                    "indices" : 18,
                    "material" : 3
                }
            ]
        },
        {
            "name" : "Untitled.002",
            "primitives" : [
                {
                    "attributes" : {
                        "POSITION" : 19,
                        "NORMAL" : 20,
                        "TEXCOORD_0" : 21
                    },
                    "indices" : 22,
                    "material" : 4
                }
            ]
        },
        {
            "name" : "Untitled",
            "primitives" : [
                {
                    "attributes" : {
                        "POSITION" : 23,
                        "NORMAL" : 24
                    },
                    "indices" : 25,
                    "material" : 5
                }
            ]
        }
    ],
    "textures" : [
        {
            "source" : 0
        },
        {
            "source" : 1
        },
        {
            "source" : 2
        },
        {
            "source" : 3
        },
        {
            "source" : 3
        }
    ],
    "images" : [
        {
            "bufferView" : 5,
            "mimeType" : "image/png",
            "name" : "299-299.png"
        },
        {
            "bufferView" : 11,
            "mimeType" : "image/png",
            "name" : "310-310.png"
        },
        {
            "bufferView" : 17,
            "mimeType" : "image/png",
            "name" : "320-320.png"
        },
        {
            "bufferView" : 22,
            "mimeType" : "image/jpeg",
            "name" : "shirt front and back texture"
        }
    ],
    "accessors" : [
        {
            "bufferView" : 0,
            "componentType" : 5126,
            "count" : 913,
            "max" : [
                0.30125677585601807,
                0.01898886263370514,
                0.058114033192396164
            ],
            "min" : [
                -0.2920312285423279,
                -0.6302657127380371,
                -0.0593520924448967
            ],
            "type" : "VEC3"
        },
        {
            "bufferView" : 1,
            "componentType" : 5126,
            "count" : 913,
            "type" : "VEC3"
        },
        {
            "bufferView" : 2,
            "componentType" : 5126,
            "count" : 913,
            "type" : "VEC2"
        },
        {
            "bufferView" : 3,
            "componentType" : 5126,
            "count" : 913,
            "type" : "VEC4"
        },
        {
            "bufferView" : 4,
            "componentType" : 5123,
            "count" : 3948,
            "type" : "SCALAR"
        },
        {
            "bufferView" : 6,
            "componentType" : 5126,
            "count" : 2010,
            "max" : [
                0.30125677585601807,
                0.01898886263370514,
                0.05705789104104042
            ],
            "min" : [
                -0.2920312285423279,
                -0.6275131702423096,
                -0.08812246471643448
            ],
            "type" : "VEC3"
        },
        {
            "bufferView" : 7,
            "componentType" : 5126,
            "count" : 2010,
            "type" : "VEC3"
        },
        {
            "bufferView" : 8,
            "componentType" : 5126,
            "count" : 2010,
            "type" : "VEC2"
        },
        {
            "bufferView" : 9,
            "componentType" : 5126,
            "count" : 2010,
            "type" : "VEC4"
        },
        {
            "bufferView" : 10,
            "componentType" : 5123,
            "count" : 8046,
            "type" : "SCALAR"
        },
        {
            "bufferView" : 12,
            "componentType" : 5126,
            "count" : 2924,
            "max" : [
                0.21000632643699646,
                0.14195814728736877,
                0.029959840700030327
            ],
            "min" : [
                -0.21052753925323486,
                -0.11593460291624069,
                -0.044524334371089935
            ],
            "type" : "VEC3"
        },
        {
            "bufferView" : 13,
            "componentType" : 5126,
            "count" : 2924,
            "type" : "VEC3"
        },
        {
            "bufferView" : 14,
            "componentType" : 5126,
            "count" : 2924,
            "type" : "VEC2"
        },
        {
            "bufferView" : 15,
            "componentType" : 5126,
            "count" : 2924,
            "type" : "VEC4"
        },
        {
            "bufferView" : 16,
            "componentType" : 5123,
            "count" : 15312,
            "type" : "SCALAR"
        },
        {
            "bufferView" : 18,
            "componentType" : 5126,
            "count" : 1819,
            "max" : [
                0.30125677585601807,
                0.01898886263370514,
                0.05705789104104042
            ],
            "min" : [
                -0.2920312285423279,
                -0.6275131702423096,
                -0.08812246471643448
            ],
            "type" : "VEC3"
        },
        {
            "bufferView" : 19,
            "componentType" : 5126,
            "count" : 1819,
            "type" : "VEC3"
        },
        {
            "bufferView" : 20,
            "componentType" : 5126,
            "count" : 1819,
            "type" : "VEC2"
        },
        {
            "bufferView" : 21,
            "componentType" : 5123,
            "count" : 8046,
            "type" : "SCALAR"
        },
        {
            "bufferView" : 23,
            "componentType" : 5126,
            "count" : 913,
            "max" : [
                0.30125677585601807,
                0.01898886263370514,
                0.058114033192396164
            ],
            "min" : [
                -0.2920312285423279,
                -0.6302657127380371,
                -0.0593520924448967
            ],
            "type" : "VEC3"
        },
        {
            "bufferView" : 24,
            "componentType" : 5126,
            "count" : 913,
            "type" : "VEC3"
        },
        {
            "bufferView" : 25,
            "componentType" : 5126,
            "count" : 913,
            "type" : "VEC2"
        },
        {
            "bufferView" : 26,
            "componentType" : 5123,
            "count" : 3948,
            "type" : "SCALAR"
        },
        {
            "bufferView" : 27,
            "componentType" : 5126,
            "count" : 2622,
            "max" : [
                0.21000632643699646,
                0.14195814728736877,
                0.029959840700030327
            ],
            "min" : [
                -0.21052753925323486,
                -0.11593460291624069,
                -0.044524334371089935
            ],
            "type" : "VEC3"
        },
        {
            "bufferView" : 28,
            "componentType" : 5126,
            "count" : 2622,
            "type" : "VEC3"
        },
        {
            "bufferView" : 29,
            "componentType" : 5123,
            "count" : 15312,
            "type" : "SCALAR"
        }
    ],
    "bufferViews" : [
        {
            "buffer" : 0,
            "byteLength" : 10956,
            "byteOffset" : 0
        },
        {
            "buffer" : 0,
            "byteLength" : 10956,
            "byteOffset" : 10956
        },
        {
            "buffer" : 0,
            "byteLength" : 7304,
            "byteOffset" : 21912
        },
        {
            "buffer" : 0,
            "byteLength" : 14608,
            "byteOffset" : 29216
        },
        {
            "buffer" : 0,
            "byteLength" : 7896,
            "byteOffset" : 43824
        },
        {
            "buffer" : 0,
            "byteLength" : 591741,
            "byteOffset" : 51720
        },
        {
            "buffer" : 0,
            "byteLength" : 24120,
            "byteOffset" : 643464
        },
        {
            "buffer" : 0,
            "byteLength" : 24120,
            "byteOffset" : 667584
        },
        {
            "buffer" : 0,
            "byteLength" : 16080,
            "byteOffset" : 691704
        },
        {
            "buffer" : 0,
            "byteLength" : 32160,
            "byteOffset" : 707784
        },
        {
            "buffer" : 0,
            "byteLength" : 16092,
            "byteOffset" : 739944
        },
        {
            "buffer" : 0,
            "byteLength" : 132507,
            "byteOffset" : 756036
        },
        {
            "buffer" : 0,
            "byteLength" : 35088,
            "byteOffset" : 888544
        },
        {
            "buffer" : 0,
            "byteLength" : 35088,
            "byteOffset" : 923632
        },
        {
            "buffer" : 0,
            "byteLength" : 23392,
            "byteOffset" : 958720
        },
        {
            "buffer" : 0,
            "byteLength" : 46784,
            "byteOffset" : 982112
        },
        {
            "buffer" : 0,
            "byteLength" : 30624,
            "byteOffset" : 1028896
        },
        {
            "buffer" : 0,
            "byteLength" : 840938,
            "byteOffset" : 1059520
        },
        {
            "buffer" : 0,
            "byteLength" : 21828,
            "byteOffset" : 1900460
        },
        {
            "buffer" : 0,
            "byteLength" : 21828,
            "byteOffset" : 1922288
        },
        {
            "buffer" : 0,
            "byteLength" : 14552,
            "byteOffset" : 1944116
        },
        {
            "buffer" : 0,
            "byteLength" : 16092,
            "byteOffset" : 1958668
        },
        {
            "buffer" : 0,
            "byteLength" : 37557,
            "byteOffset" : 1974760
        },
        {
            "buffer" : 0,
            "byteLength" : 10956,
            "byteOffset" : 2012320
        },
        {
            "buffer" : 0,
            "byteLength" : 10956,
            "byteOffset" : 2023276
        },
        {
            "buffer" : 0,
            "byteLength" : 7304,
            "byteOffset" : 2034232
        },
        {
            "buffer" : 0,
            "byteLength" : 7896,
            "byteOffset" : 2041536
        },
        {
            "buffer" : 0,
            "byteLength" : 31464,
            "byteOffset" : 2049432
        },
        {
            "buffer" : 0,
            "byteLength" : 31464,
            "byteOffset" : 2080896
        },
        {
            "buffer" : 0,
            "byteLength" : 30624,
            "byteOffset" : 2112360
        }
    ],
    "buffers" : [
        {
            "byteLength" : 2142984,
            "uri" : "data:application/octet-stream;base64,"
        }
    ]
}
