{
  "asset": {
    "version": "2.0",
    "generator": "THREE.GLTFExporter"
  },
  "scenes": [
    {
      "nodes": [
        3
      ],
      "name": "AuxScene"
    }
  ],
  "scene": 0,
  "nodes": [
    {
      "matrix": [
        2.1912152832374563,
        -5.165630001286622e-8,
        -1.2845910545981798,
        0,
        -1.2845910545981722,
        -3.8353518475047707e-7,
        -2.191215283237427,
        0,
        -1.4940782331317704e-7,
        2.5399999618529967,
        -3.569943158807376e-7,
        0,
        -5.450664043426514,
        19.703811645507812,
        6.2674665451049805,
        1
      ],
      "name": "arch49_055_obj_01",
      "mesh": 0
    },
    {
      "matrix": [
        2.1912152832374563,
        -5.165630001286622e-8,
        -1.2845910545981798,
        0,
        -1.2845910545981722,
        -3.8353518475047707e-7,
        -2.191215283237427,
        0,
        -1.4940782331317704e-7,
        2.5399999618529967,
        -3.569943158807376e-7,
        0,
        -5.659848213195801,
        22.091073989868164,
        5.910641670227051,
        1
      ],
      "name": "arch49_055_obj_00001",
      "mesh": 1
    },
    {
      "matrix": [
        2.1912152832374563,
        -5.165630001286622e-8,
        -1.2845910545981798,
        0,
        -1.2845910545981722,
        -3.8353518475047707e-7,
        -2.191215283237427,
        0,
        -1.4940782331317704e-7,
        2.5399999618529967,
        -3.569943158807376e-7,
        0,
        -5.659848213195801,
        22.091073989868164,
        5.910641670227051,
        1
      ],
      "name": "arch49_055_obj_00",
      "mesh": 2
    },
    {
      "children": [
        0,
        1,
        2
      ]
    }
  ],
  "bufferViews": [
    {
      "buffer": 0,
      "byteOffset": 0,
      "byteLength": 191520,
      "target": 34962,
      "byteStride": 12
    },
    {
      "buffer": 0,
      "byteOffset": 191520,
      "byteLength": 191520,
      "target": 34962,
      "byteStride": 12
    },
    {
      "buffer": 0,
      "byteOffset": 383040,
      "byteLength": 127680,
      "target": 34962,
      "byteStride": 8
    },
    {
      "buffer": 0,
      "byteOffset": 510720,
      "byteLength": 936,
      "target": 34962,
      "byteStride": 12
    },
    {
      "buffer": 0,
      "byteOffset": 511656,
      "byteLength": 936,
      "target": 34962,
      "byteStride": 12
    },
    {
      "buffer": 0,
      "byteOffset": 512592,
      "byteLength": 624,
      "target": 34962,
      "byteStride": 8
    },
    {
      "buffer": 0,
      "byteOffset": 513216,
      "byteLength": 505368,
      "target": 34962,
      "byteStride": 12
    },
    {
      "buffer": 0,
      "byteOffset": 1018584,
      "byteLength": 505368,
      "target": 34962,
      "byteStride": 12
    },
    {
      "buffer": 0,
      "byteOffset": 1523952,
      "byteLength": 336912,
      "target": 34962,
      "byteStride": 8
    }
  ],
  "buffers": [
    {
      "byteLength": 1860864,
      "uri": "data:application/octet-stream;base64,"
    }
  ],
  "accessors": [
    {
      "bufferView": 0,
      "componentType": 5126,
      "count": 15960,
      "max": [
        3.1271097660064697,
        5.370747089385986,
        2.820500373840332
      ],
      "min": [
        -3.1271097660064697,
        -5.68804931640625,
        -1.5558325052261353
      ],
      "type": "VEC3"
    },
    {
      "bufferView": 1,
      "componentType": 5126,
      "count": 15960,
      "max": [
        1,
        0.9997285008430481,
        0.9986801147460938
      ],
      "min": [
        -0.9997093081474304,
        -0.9999995231628418,
        -0.998828649520874
      ],
      "type": "VEC3"
    },
    {
      "bufferView": 2,
      "componentType": 5126,
      "count": 15960,
      "max": [
        0.5626556873321533,
        0.7255324721336365
      ],
      "min": [
        -0.5626556277275085,
        -0.6195048689842224
      ],
      "type": "VEC2"
    },
    {
      "bufferView": 3,
      "componentType": 5126,
      "count": 78,
      "max": [
        0.275979220867157,
        -2.0753931999206543,
        1.3464405536651611
      ],
      "min": [
        -0.2759830355644226,
        -2.4617085456848145,
        0.60648512840271
      ],
      "type": "VEC3"
    },
    {
      "bufferView": 4,
      "componentType": 5126,
      "count": 78,
      "max": [
        0.6914808750152588,
        -0.6259465217590332,
        0.49878987669944763
      ],
      "min": [
        -0.6912397146224976,
        -0.9208083748817444,
        0.28094378113746643
      ],
      "type": "VEC3"
    },
    {
      "bufferView": 5,
      "componentType": 5126,
      "count": 78,
      "max": [
        0.3941679000854492,
        0.5228719115257263
      ],
      "min": [
        0.3552207350730896,
        0.4794703423976898
      ],
      "type": "VEC2"
    },
    {
      "bufferView": 6,
      "componentType": 5126,
      "count": 42114,
      "max": [
        3.1906967163085938,
        5.434870719909668,
        3.124393939971924
      ],
      "min": [
        -3.1906967163085938,
        -5.857666015625,
        -2.4880833625793457
      ],
      "type": "VEC3"
    },
    {
      "bufferView": 7,
      "componentType": 5126,
      "count": 42114,
      "max": [
        1,
        0.9979342818260193,
        1
      ],
      "min": [
        -1,
        -0.997040867805481,
        -1
      ],
      "type": "VEC3"
    },
    {
      "bufferView": 8,
      "componentType": 5126,
      "count": 42114,
      "max": [
        1.012639045715332,
        0.9523372054100037
      ],
      "min": [
        0.005077078472822905,
        0.08451351523399353
      ],
      "type": "VEC2"
    }
  ],
  "materials": [
    {
      "pbrMetallicRoughness": {
        "metallicFactor": 0.5,
        "roughnessFactor": 0.5
      },
      "name": "Material.003"
    },
    {
      "pbrMetallicRoughness": {
        "metallicFactor": 0.5,
        "roughnessFactor": 0.5
      },
      "name": "Material"
    },
    {
      "pbrMetallicRoughness": {
        "metallicFactor": 0.5,
        "roughnessFactor": 0.5
      },
      "name": "Material.002"
    }
  ],
  "meshes": [
    {
      "primitives": [
        {
          "mode": 4,
          "attributes": {
            "POSITION": 0,
            "NORMAL": 1,
            "TEXCOORD_0": 2
          },
          "material": 0
        }
      ]
    },
    {
      "primitives": [
        {
          "mode": 4,
          "attributes": {
            "POSITION": 3,
            "NORMAL": 4,
            "TEXCOORD_0": 5
          },
          "material": 1
        }
      ]
    },
    {
      "primitives": [
        {
          "mode": 4,
          "attributes": {
            "POSITION": 6,
            "NORMAL": 7,
            "TEXCOORD_0": 8
          },
          "material": 2
        }
      ]
    }
  ]
}