{
    "asset" : {
        "generator" : "Khronos glTF Blender I/O v1.0.5",
        "version" : "2.0"
    },
    "scene" : 0,
    "scenes" : [
        {
            "name" : "Scene",
            "nodes" : [
                0,
                1,
                2,
                3,
                4
            ]
        }
    ],
    "nodes" : [
        {
            "name" : "Light",
            "rotation" : [
                0.16907575726509094,
                0.7558803558349609,
                -0.27217137813568115,
                0.570947527885437
            ],
            "translation" : [
                4.076245307922363,
                5.903861999511719,
                -1.0054539442062378
            ]
        },
        {
            "name" : "Camera",
            "rotation" : [
                0.483536034822464,
                0.33687159419059753,
                -0.20870360732078552,
                0.7804827094078064
            ],
            "translation" : [
                7.358891487121582,
                4.958309173583984,
                6.925790786743164
            ]
        },
        {
            "mesh" : 0,
            "name" : "arch49_055_obj_00.001",
            "rotation" : [
                0,
                0.26202747225761414,
                0,
                0.9650604128837585
            ],
            "scale" : [
                0.4825788736343384,
                0.4276713728904724,
                0.42988139390945435
            ],
            "translation" : [
                -0.060846298933029175,
                0.34693780541419983,
                0.06185072287917137
            ]
        },
        {
            "mesh" : 1,
            "name" : "arch49_055_obj_01",
            "rotation" : [
                0,
                0.26202747225761414,
                0,
                0.9650604128837585
            ],
            "scale" : [
                0.4825788736343384,
                0.4276713728904724,
                0.42988139390945435
            ],
            "translation" : [
                -0.0460110679268837,
                -0.055016279220581055,
                0.05718608945608139
            ]
        },
        {
            "mesh" : 2,
            "name" : "arch49_055_obj_00",
            "rotation" : [
                0,
                0.26202747225761414,
                0,
                0.9650604128837585
            ],
            "scale" : [
                0.4825788736343384,
                0.4276713728904724,
                0.42988139390945435
            ],
            "translation" : [
                -0.060846298933029175,
                0.34693780541419983,
                0.06185072287917137
            ]
        }
    ],
    "materials" : [
        {
            "doubleSided" : true,
            "name" : "Material.001",
            "pbrMetallicRoughness" : {
                "baseColorTexture" : {
                    "index" : 0,
                    "texCoord" : 0
                },
                "metallicFactor" : 1,
                "roughnessFactor" : 0.5527864098548889
            }
        },
        {
            "doubleSided" : true,
            "name" : "Material.003",
            "pbrMetallicRoughness" : {
                "baseColorTexture" : {
                    "index" : 1,
                    "texCoord" : 0
                },
                "metallicFactor" : 1,
                "roughnessFactor" : 0.5527864098548889
            }
        },
        {
            "doubleSided" : true,
            "name" : "Material.002",
            "pbrMetallicRoughness" : {
                "baseColorTexture" : {
                    "index" : 2,
                    "texCoord" : 0
                },
                "metallicFactor" : 1,
                "roughnessFactor" : 0.5527864098548889
            }
        }
    ],
    "meshes" : [
        {
            "name" : "Untitled.002",
            "primitives" : [
                {
                    "attributes" : {
                        "POSITION" : 0,
                        "NORMAL" : 1,
                        "TEXCOORD_0" : 2
                    },
                    "indices" : 3,
                    "material" : 0
                }
            ]
        },
        {
            "name" : "Untitled.001",
            "primitives" : [
                {
                    "attributes" : {
                        "POSITION" : 4,
                        "NORMAL" : 5,
                        "TEXCOORD_0" : 6
                    },
                    "indices" : 7,
                    "material" : 1
                }
            ]
        },
        {
            "name" : "Untitled",
            "primitives" : [
                {
                    "attributes" : {
                        "POSITION" : 8,
                        "NORMAL" : 9,
                        "TEXCOORD_0" : 10
                    },
                    "indices" : 11,
                    "material" : 2
                }
            ]
        }
    ],
    "textures" : [
        {
            "source" : 0
        },
        {
            "source" : 1
        },
        {
            "source" : 1
        }
    ],
    "images" : [
        {
            "bufferView" : 4,
            "mimeType" : "image/png",
            "name" : "Picturew1"
        },
        {
            "bufferView" : 9,
            "mimeType" : "image/jpeg",
            "name" : "973871-full-size-maroon-color-background-2048x1536-tablet"
        }
    ],
    "accessors" : [
        {
            "bufferView" : 0,
            "componentType" : 5126,
            "count" : 29,
            "max" : [
                0.275979220867157,
                1.3464405536651611,
                2.4617085456848145
            ],
            "min" : [
                -0.2759830355644226,
                0.60648512840271,
                2.0753931999206543
            ],
            "type" : "VEC3"
        },
        {
            "bufferView" : 1,
            "componentType" : 5126,
            "count" : 29,
            "type" : "VEC3"
        },
        {
            "bufferView" : 2,
            "componentType" : 5126,
            "count" : 29,
            "type" : "VEC2"
        },
        {
            "bufferView" : 3,
            "componentType" : 5123,
            "count" : 78,
            "type" : "SCALAR"
        },
        {
            "bufferView" : 5,
            "componentType" : 5126,
            "count" : 3882,
            "max" : [
                3.1271097660064697,
                2.820500373840332,
                5.68804931640625
            ],
            "min" : [
                -3.1271097660064697,
                -1.5558325052261353,
                -5.370747089385986
            ],
            "type" : "VEC3"
        },
        {
            "bufferView" : 6,
            "componentType" : 5126,
            "count" : 3882,
            "type" : "VEC3"
        },
        {
            "bufferView" : 7,
            "componentType" : 5126,
            "count" : 3882,
            "type" : "VEC2"
        },
        {
            "bufferView" : 8,
            "componentType" : 5123,
            "count" : 15960,
            "type" : "SCALAR"
        },
        {
            "bufferView" : 10,
            "componentType" : 5126,
            "count" : 8343,
            "max" : [
                3.1906967163085938,
                3.124393939971924,
                5.857666015625
            ],
            "min" : [
                -3.1906967163085938,
                -2.4880833625793457,
                -5.434870719909668
            ],
            "type" : "VEC3"
        },
        {
            "bufferView" : 11,
            "componentType" : 5126,
            "count" : 8343,
            "type" : "VEC3"
        },
        {
            "bufferView" : 12,
            "componentType" : 5126,
            "count" : 8343,
            "type" : "VEC2"
        },
        {
            "bufferView" : 13,
            "componentType" : 5123,
            "count" : 42114,
            "type" : "SCALAR"
        }
    ],
    "bufferViews" : [
        {
            "buffer" : 0,
            "byteLength" : 348,
            "byteOffset" : 0
        },
        {
            "buffer" : 0,
            "byteLength" : 348,
            "byteOffset" : 348
        },
        {
            "buffer" : 0,
            "byteLength" : 232,
            "byteOffset" : 696
        },
        {
            "buffer" : 0,
            "byteLength" : 156,
            "byteOffset" : 928
        },
        {
            "buffer" : 0,
            "byteLength" : 68505,
            "byteOffset" : 1084
        },
        {
            "buffer" : 0,
            "byteLength" : 46584,
            "byteOffset" : 69592
        },
        {
            "buffer" : 0,
            "byteLength" : 46584,
            "byteOffset" : 116176
        },
        {
            "buffer" : 0,
            "byteLength" : 31056,
            "byteOffset" : 162760
        },
        {
            "buffer" : 0,
            "byteLength" : 31920,
            "byteOffset" : 193816
        },
        {
            "buffer" : 0,
            "byteLength" : 36238,
            "byteOffset" : 225736
        },
        {
            "buffer" : 0,
            "byteLength" : 100116,
            "byteOffset" : 261976
        },
        {
            "buffer" : 0,
            "byteLength" : 100116,
            "byteOffset" : 362092
        },
        {
            "buffer" : 0,
            "byteLength" : 66744,
            "byteOffset" : 462208
        },
        {
            "buffer" : 0,
            "byteLength" : 84228,
            "byteOffset" : 528952
        }
    ],
    "buffers" : [
        {
            "byteLength" : 613180,
            "uri" : "data:application/octet-stream;base64,"
        }
    ]
}
